<?xml version="1.0" encoding="UTF-8"?> <svg xmlns="http://www.w3.org/2000/svg" width="723" height="235" viewBox="0 0 723 235" fill="none"><path d="M302 160.55C308.131 161.575 315.114 162.429 321.756 162.429C329.25 162.429 332.826 155.937 332.826 141.587V57.7083H349.516V143.979C349.516 167.212 340.32 179 322.267 179C315.114 179 308.472 178.487 302 176.95V160.55Z" fill="white"></path><path d="M435.6 178.829C402.56 178.829 375.14 151.325 375.14 117.5C375.14 83.8458 402.049 56 435.6 56C448.373 56 462.168 58.7333 470.343 64.5417V84.3583C462.509 78.2083 451.609 72.5708 435.6 72.5708C411.586 72.5708 392.001 92.7292 392.001 117.5C392.001 141.929 411.586 162.258 435.6 162.258C451.439 162.258 462.339 156.962 470.343 151.154V170.458C462.168 176.267 448.543 178.829 435.6 178.829Z" fill="white"></path><path d="M549.528 178.829C516.488 178.829 489.068 151.325 489.068 117.5C489.068 83.8458 515.977 56 549.528 56C583.079 56 609.988 83.8458 609.988 117.5C609.988 151.325 582.568 178.829 549.528 178.829ZM549.528 72.5708C525.514 72.5708 505.928 92.7292 505.928 117.5C505.928 141.929 525.514 162.258 549.528 162.258C573.541 162.258 593.127 141.929 593.127 117.5C593.127 92.7292 573.541 72.5708 549.528 72.5708Z" fill="white"></path><path d="M652.151 177.292H635.461V57.7083H652.662L706.31 147.737V57.7083H723V177.292H705.799L652.151 87.775V177.292Z" fill="white"></path><path d="M56 32.5L1.03306e-06 65L3.8743e-06 -2.44784e-06L56 32.5Z" fill="white"></path><path d="M56 117.5L1.03306e-06 150L3.8743e-06 85L56 117.5Z" fill="white"></path><path d="M56 202.5L1.03306e-06 235L3.8743e-06 170L56 202.5Z" fill="white"></path><path d="M4.26186e-06 159.5L56 127L56 192L4.26186e-06 159.5Z" fill="white"></path><path d="M4.26186e-06 74.5L56 42L56 107L4.26186e-06 74.5Z" fill="white"></path><path d="M120 32.5L64 65L64 -2.44784e-06L120 32.5Z" fill="white"></path><path d="M120 117.5L64 150L64 85L120 117.5Z" fill="white"></path><path d="M120 202.5L64 235L64 170L120 202.5Z" fill="white"></path><path d="M64 159.5L120 127L120 192L64 159.5Z" fill="white"></path><path d="M64 74.5L120 42L120 107L64 74.5Z" fill="white"></path><path d="M192 202.5L248 170L248 235L192 202.5Z" fill="white"></path><path d="M192 117.5L248 85L248 150L192 117.5Z" fill="white"></path><path d="M192 32.5L248 5.60363e-06L248 65L192 32.5Z" fill="white"></path><path d="M248 75.5L192 108L192 43L248 75.5Z" fill="white"></path><path d="M248 160.5L192 193L192 128L248 160.5Z" fill="white"></path><path d="M128 202.5L184 170L184 235L128 202.5Z" fill="white"></path><path d="M128 117.5L184 85L184 150L128 117.5Z" fill="white"></path><path d="M128 32.5L184 5.60363e-06L184 65L128 32.5Z" fill="white"></path><path d="M184 74.5L128 107L128 42L184 74.5Z" fill="white"></path><path d="M184 159.5L128 192L128 127L184 159.5Z" fill="white"></path></svg> 